<?xml version="1.0" encoding="UTF-8" standalone="no"?>
<svg width="256" height="256" viewBox="0 0 256 256" xmlns="http://www.w3.org/2000/svg">
  <title>Robot Cat Icon</title>
  <defs>
    <linearGradient id="bodyGrad" x1="0" y1="0" x2="1" y2="1">
      <stop offset="0%" stop-color="#7f8fa6"/>
      <stop offset="100%" stop-color="#4b5563"/>
    </linearGradient>
    <linearGradient id="eyeGrad" x1="0" y1="0" x2="1" y2="0">
      <stop offset="0%" stop-color="#00ffd5"/>
      <stop offset="100%" stop-color="#00a3ff"/>
    </linearGradient>
    <filter id="glow" x="-40%" y="-40%" width="180%" height="180%">
      <feGaussianBlur stdDeviation="3" result="blur"/>
      <feMerge><feMergeNode in="blur"/><feMergeNode in="SourceGraphic"/></feMerge>
    </filter>
  </defs>

  <!-- Head silhouette -->
  <path d="M64 60 L92 28 Q100 20 108 28 L128 52 L148 28 Q156 20 164 28 L192 60
           Q208 76 208 108 L208 150 Q208 198 128 206 Q48 198 48 150 L48 108
           Q48 76 64 60Z"
        fill="url(#bodyGrad)" stroke="#1e293b" stroke-width="6" stroke-linejoin="round"/>

  <!-- Face panel -->
  <path d="M76 96 Q128 72 180 96 L180 142 Q128 160 76 142 Z"
        fill="#2f3640" stroke="#1e293b" stroke-width="4"/>

  <!-- Eye visor -->
  <rect x="92" y="108" width="72" height="20" rx="6" fill="url(#eyeGrad)" filter="url(#glow)" />
  <rect x="96" y="112" width="12" height="12" rx="2" fill="#ffffff" opacity="0.45"/>
  <rect x="148" y="112" width="12" height="12" rx="2" fill="#ffffff" opacity="0.25"/>

  <!-- Chin / jaw plate -->
  <path d="M96 150 Q128 156 160 150 L154 170 Q128 178 102 170 Z"
        fill="#3d4854" stroke="#1e293b" stroke-width="3"/>

  <!-- Antenna -->
  <line x1="128" y1="52" x2="128" y2="24" stroke="#1e293b" stroke-width="6" stroke-linecap="round"/>
  <circle cx="128" cy="18" r="10" fill="#00ffd5" stroke="#1e293b" stroke-width="4"/>

  <!-- Side bolts -->
  <circle cx="62" cy="124" r="8" fill="#475569" stroke="#1e293b" stroke-width="4"/>
  <circle cx="194" cy="124" r="8" fill="#475569" stroke="#1e293b" stroke-width="4"/>

  <!-- Decorative panel lines -->
  <path d="M88 84 L168 84" stroke="#566173" stroke-width="3" stroke-linecap="round" opacity="0.6"/>
  <path d="M84 132 L172 132" stroke="#566173" stroke-width="3" stroke-linecap="round" opacity="0.4"/>
</svg>